<svg width="25.223450" height="25.223419" viewBox="0 0 25.2234 25.2234" fill="none" xmlns="http://www.w3.org/2000/svg" xmlns:xlink="http://www.w3.org/1999/xlink">
	<desc>
			Created with Pixso.
	</desc>
	<defs/>
	<path d="M18.39 0L6.82 0C3.06 0 0 3.06 0 6.82L0 18.39C0 22.16 3.06 25.22 6.82 25.22L18.39 25.22C22.16 25.22 25.22 22.16 25.22 18.39L25.22 6.82C25.22 3.06 22.16 0 18.39 0L18.39 0ZM23.74 18.39C23.74 21.34 21.34 23.74 18.39 23.74L6.82 23.74C3.87 23.74 1.47 21.34 1.47 18.39L1.47 6.82C1.47 3.87 3.87 1.47 6.82 1.47L18.39 1.47C21.34 1.47 23.74 3.87 23.74 6.82L23.74 18.39Z" fill="#FFFFFF" fill-opacity="1.000000" fill-rule="nonzero"/>
	<path d="M12.61 5.71C8.8 5.71 5.71 8.8 5.71 12.61C5.71 16.41 8.8 19.5 12.61 19.5C16.41 19.5 19.5 16.41 19.5 12.61C19.5 8.8 16.41 5.71 12.61 5.71ZM12.61 18.02C9.62 18.02 7.19 15.59 7.19 12.61C7.19 9.62 9.62 7.19 12.61 7.19C15.59 7.19 18.02 9.62 18.02 12.61C18.02 15.59 15.59 18.02 12.61 18.02Z" fill="#FFFFFF" fill-opacity="1.000000" fill-rule="nonzero"/>
	<path d="M19.67 3.26C18.54 3.26 17.63 4.17 17.63 5.3C17.63 6.42 18.54 7.34 19.67 7.34C20.79 7.34 21.71 6.42 21.71 5.3C21.71 4.17 20.79 3.26 19.67 3.26ZM19.67 5.86C19.36 5.86 19.11 5.61 19.11 5.3C19.11 4.99 19.36 4.74 19.67 4.74C19.98 4.74 20.23 4.99 20.23 5.3C20.23 5.61 19.98 5.86 19.67 5.86Z" fill="#FFFFFF" fill-opacity="1.000000" fill-rule="nonzero"/>
</svg>
